<?xml version="1.0" encoding="UTF-8"?>
<!DOCTYPE svg PUBLIC "-//W3C//DTD SVG 1.1//EN" "http://www.w3.org/Graphics/SVG/1.1/DTD/svg11.dtd">
<svg xmlns="http://www.w3.org/2000/svg" version="1.1" width="1200px" height="800px" style="shape-rendering:geometricPrecision; text-rendering:geometricPrecision; image-rendering:optimizeQuality; fill-rule:evenodd; clip-rule:evenodd" xmlns:xlink="http://www.w3.org/1999/xlink">
<g><path style="opacity:0.787" fill="#7e7e7e" d="M 581.5,197.5 C 586.167,197.5 590.833,197.5 595.5,197.5C 595.5,199.5 595.5,201.5 595.5,203.5C 589.131,203.347 582.797,203.68 576.5,204.5C 576.5,202.5 576.5,200.5 576.5,198.5C 578.415,198.784 580.081,198.451 581.5,197.5 Z"/></g>
<g><path style="opacity:0.752" fill="#808080" d="M 611.5,197.5 C 617.838,197.767 624.171,198.1 630.5,198.5C 630.5,200.5 630.5,202.5 630.5,204.5C 624.185,203.89 617.851,203.557 611.5,203.5C 611.5,201.5 611.5,199.5 611.5,197.5 Z"/></g>
<g><path style="opacity:0.984" fill="#00007f" d="M 712.5,233.5 C 713.338,233.158 713.672,232.492 713.5,231.5C 713.5,231.167 713.5,230.833 713.5,230.5C 724.692,205.902 743.692,196.069 770.5,201C 797.403,211.639 807.903,231.139 802,259.5C 791.226,285.306 772.059,295.472 744.5,290C 718.961,279.769 708.294,260.935 712.5,233.5 Z"/></g>
<g><path style="opacity:0.804" fill="#808080" d="M 556.5,201.5 C 560.068,201.759 561.401,203.759 560.5,207.5C 554.426,208.519 548.426,209.852 542.5,211.5C 542.167,209.5 541.833,207.5 541.5,205.5C 546.722,204.613 551.722,203.279 556.5,201.5 Z"/></g>
<g><path style="opacity:0.814" fill="#808080" d="M 646.5,202.5 C 653.035,203.384 659.368,205.051 665.5,207.5C 665.047,209.565 664.047,211.232 662.5,212.5C 657.261,210.69 651.928,209.19 646.5,208C 646.146,206.374 646.146,204.541 646.5,202.5 Z"/></g>
<g><path style="opacity:0.83" fill="#7f7f7f" d="M 522.5,212.5 C 523.833,212.5 525.167,212.5 526.5,212.5C 527.052,214.331 527.052,215.997 526.5,217.5C 521.38,219.56 516.38,221.893 511.5,224.5C 509.585,222.929 508.585,220.929 508.5,218.5C 513.456,217.018 518.123,215.018 522.5,212.5 Z"/></g>
<g><path style="opacity:0.851" fill="#808080" d="M 680.5,213.5 C 686.035,215.265 691.368,217.598 696.5,220.5C 697.645,221.776 697.645,223.109 696.5,224.5C 691.011,223.835 685.677,222.002 680.5,219C 679.464,217.224 679.464,215.391 680.5,213.5 Z"/></g>
<g><path style="opacity:0.839" fill="#7f7f7f" d="M 491.5,228.5 C 493.973,228.736 495.64,230.069 496.5,232.5C 492.167,235.667 487.833,238.833 483.5,242C 479.771,242.444 478.437,240.944 479.5,237.5C 483.568,234.479 487.568,231.479 491.5,228.5 Z"/></g>
<g><path style="opacity:0.024" fill="#8e8e86" d="M 713.5,230.5 C 713.5,230.833 713.5,231.167 713.5,231.5C 712.662,231.842 712.328,232.508 712.5,233.5C 711.542,233.953 710.708,234.619 710,235.5C 709.551,232.906 710.551,230.906 713,229.5C 713.399,229.728 713.565,230.062 713.5,230.5 Z"/></g>
<g><path style="opacity:0.994" fill="#01007f" d="M 584.5,245.5 C 650.603,241.634 701.437,267.3 737,322.5C 769.004,383.754 765.004,442.42 725,498.5C 680.303,550.619 624.47,568.453 557.5,552C 503.572,534.405 468.072,498.572 451,444.5C 435.648,379.9 452.481,325.4 501.5,281C 525.884,261.474 553.551,249.641 584.5,245.5 Z"/></g>
<g><path style="opacity:0.825" fill="#808080" d="M 464.5,249.5 C 466.145,250.479 467.479,251.812 468.5,253.5C 464.515,257.985 460.349,262.318 456,266.5C 454.649,264.981 453.149,263.648 451.5,262.5C 456.188,258.479 460.521,254.146 464.5,249.5 Z"/></g>
<g><path style="opacity:0.854" fill="#808080" d="M 440.5,275.5 C 442.022,276.431 443.355,277.598 444.5,279C 441.296,283.903 437.963,288.737 434.5,293.5C 432.503,293.014 431.169,291.847 430.5,290C 433.714,285.068 437.047,280.234 440.5,275.5 Z"/></g>
<g><path style="opacity:1" fill="#fdfdfe" d="M 657.5,291.5 C 684.494,289.35 702.328,301.017 711,326.5C 714.486,354.98 702.652,373.48 675.5,382C 648.789,384.899 630.955,373.733 622,348.5C 618.121,319.573 629.954,300.573 657.5,291.5 Z"/></g>
<g><path style="opacity:0.816" fill="#808080" d="M 420.5,305.5 C 422.757,305.962 424.757,306.962 426.5,308.5C 423.47,313.9 420.47,319.234 417.5,324.5C 415.77,323.974 414.436,322.974 413.5,321.5C 415.845,316.145 418.179,310.812 420.5,305.5 Z"/></g>
<g><path style="opacity:0.854" fill="#7e7e7e" d="M 782.5,308.5 C 783.376,308.369 784.043,308.702 784.5,309.5C 787.129,315.085 789.462,320.751 791.5,326.5C 789.5,326.833 787.5,327.167 785.5,327.5C 784.268,321.7 781.934,316.367 778.5,311.5C 779.901,310.479 781.235,309.479 782.5,308.5 Z"/></g>
<g><path style="opacity:0.836" fill="#808080" d="M 406.5,338.5 C 408.827,338.247 410.827,338.914 412.5,340.5C 410.698,345.741 409.198,351.074 408,356.5C 406.293,357.138 404.46,357.138 402.5,356.5C 403.627,350.454 404.96,344.454 406.5,338.5 Z"/></g>
<g><path style="opacity:0.841" fill="#7d7d7d" d="M 795.5,341.5 C 796.75,341.577 797.583,342.244 798,343.5C 799.963,349.016 801.13,354.683 801.5,360.5C 799.533,360.739 797.699,360.406 796,359.5C 795.122,353.988 793.622,348.655 791.5,343.5C 792.949,342.828 794.282,342.161 795.5,341.5 Z"/></g>
<g><path style="opacity:0.766" fill="#808080" d="M 398.5,372.5 C 400.5,372.833 402.5,373.167 404.5,373.5C 403.926,379.484 403.593,385.484 403.5,391.5C 401.5,391.5 399.5,391.5 397.5,391.5C 397.767,385.162 398.1,378.829 398.5,372.5 Z"/></g>
<g><path style="opacity:0.797" fill="#7f7f7f" d="M 799.5,376.5 C 801.467,376.261 803.301,376.594 805,377.5C 805.699,383.489 806.199,389.489 806.5,395.5C 804.5,395.5 802.5,395.5 800.5,395.5C 800.1,389.171 799.767,382.838 799.5,376.5 Z"/></g>
<g><path style="opacity:1" fill="#fafafc" d="M 508.5,377.5 C 508.5,407.833 508.5,438.167 508.5,468.5C 525.5,468.5 542.5,468.5 559.5,468.5C 559.5,472.167 559.5,475.833 559.5,479.5C 538.167,479.5 516.833,479.5 495.5,479.5C 495.5,445.5 495.5,411.5 495.5,377.5C 499.833,377.5 504.167,377.5 508.5,377.5 Z"/></g>
<g><path style="opacity:1" fill="#5b5bad" d="M 508.5,377.5 C 509.498,407.329 509.831,437.329 509.5,467.5C 526.342,467.17 543.008,467.503 559.5,468.5C 542.5,468.5 525.5,468.5 508.5,468.5C 508.5,438.167 508.5,407.833 508.5,377.5 Z"/></g>
<g><path style="opacity:1" fill="#f9f8fc" d="M 668.5,404.5 C 675.175,404.334 681.842,404.5 688.5,405C 697.249,405.784 703.082,410.284 706,418.5C 706.333,434.833 706.667,451.167 707,467.5C 707.374,468.416 707.874,469.25 708.5,470C 710.81,470.497 713.143,470.663 715.5,470.5C 716.011,474.03 715.344,477.196 713.5,480C 704.696,482.679 698.529,479.846 695,471.5C 682.867,482.144 669.367,484.311 654.5,478C 646.931,471.504 644.431,463.338 647,453.5C 649.808,446.339 654.974,441.839 662.5,440C 670.81,438.56 679.143,437.226 687.5,436C 690.034,435.484 692.2,434.317 694,432.5C 696.802,423.325 693.636,417.492 684.5,415C 676.91,413.361 670.077,414.861 664,419.5C 662.293,421.909 661.46,424.575 661.5,427.5C 657.5,427.5 653.5,427.5 649.5,427.5C 649.97,414.851 656.304,407.185 668.5,404.5 Z"/></g>
<g><path style="opacity:1" fill="#fafafc" d="M 619.5,479.5 C 619.665,475.818 619.499,472.152 619,468.5C 618.283,469.044 617.783,469.711 617.5,470.5C 608.486,481.382 597.153,484.549 583.5,480C 577.912,477.414 574.079,473.247 572,467.5C 571.5,447.169 571.333,426.836 571.5,406.5C 575.167,406.5 578.833,406.5 582.5,406.5C 582.333,424.836 582.5,443.17 583,461.5C 587.19,470.177 594.024,473.343 603.5,471C 609.667,468.833 613.833,464.667 616,458.5C 617.444,441.223 617.944,423.889 617.5,406.5C 621.5,406.5 625.5,406.5 629.5,406.5C 629.5,430.833 629.5,455.167 629.5,479.5C 626.167,479.5 622.833,479.5 619.5,479.5 Z"/></g>
<g><path style="opacity:0.786" fill="#808080" d="M 397.5,408.5 C 399.5,408.5 401.5,408.5 403.5,408.5C 403.303,414.545 403.637,420.545 404.5,426.5C 402.738,426.357 401.071,426.691 399.5,427.5C 397.817,421.289 397.15,414.955 397.5,408.5 Z"/></g>
<g><path style="opacity:0.817" fill="#7e7e7e" d="M 800.5,411.5 C 802.5,411.5 804.5,411.5 806.5,411.5C 805.833,417.833 805.167,424.167 804.5,430.5C 802.5,430.5 800.5,430.5 798.5,430.5C 799.232,424.176 799.899,417.842 800.5,411.5 Z"/></g>
<g><path style="opacity:0.807" fill="#7f7f7f" d="M 404.5,442.5 C 405.5,442.5 406.5,442.5 407.5,442.5C 408.359,448.27 409.692,453.937 411.5,459.5C 409.827,461.086 407.827,461.753 405.5,461.5C 404.167,455.5 402.833,449.5 401.5,443.5C 402.791,443.737 403.791,443.404 404.5,442.5 Z"/></g>
<g><path style="opacity:1" fill="#06027f" d="M 693.5,443.5 C 697.718,461.356 690.551,470.689 672,471.5C 659.685,470.713 655.852,464.546 660.5,453C 662.67,451.414 665.004,450.08 667.5,449C 676.444,447.81 685.11,445.977 693.5,443.5 Z"/></g>
<g><path style="opacity:0.795" fill="#7e7e7e" d="M 795.5,446.5 C 797.604,446.201 799.604,446.534 801.5,447.5C 800.097,453.709 798.097,459.709 795.5,465.5C 793.775,464.985 792.108,464.318 790.5,463.5C 792.635,457.957 794.302,452.29 795.5,446.5 Z"/></g>
<g><path style="opacity:1" fill="#6766b3" d="M 619.5,479.5 C 618.833,476.5 618.167,473.5 617.5,470.5C 617.783,469.711 618.283,469.044 619,468.5C 619.499,472.152 619.665,475.818 619.5,479.5 Z"/></g>
<g><path style="opacity:0.822" fill="#7f7f7f" d="M 413.5,476.5 C 415.144,476.286 416.644,476.62 418,477.5C 420.48,482.782 422.647,488.115 424.5,493.5C 422.5,493.833 420.5,494.167 418.5,494.5C 416.718,488.934 414.384,483.601 411.5,478.5C 412.243,477.818 412.909,477.151 413.5,476.5 Z"/></g>
<g><path style="opacity:0.797" fill="#808080" d="M 784.5,479.5 C 786.696,479.565 788.696,480.232 790.5,481.5C 788,486.5 785.5,491.5 783,496.5C 780.726,497.856 778.893,497.356 777.5,495C 779.982,489.871 782.316,484.704 784.5,479.5 Z"/></g>
<g><path style="opacity:0.832" fill="#808080" d="M 430.5,507.5 C 431.822,507.33 432.989,507.663 434,508.5C 436.833,512.833 439.667,517.167 442.5,521.5C 441.573,523.946 439.906,524.779 437.5,524C 434.09,519.592 431.09,514.925 428.5,510C 429.056,508.989 429.722,508.156 430.5,507.5 Z"/></g>
<g><path style="opacity:0.833" fill="#808080" d="M 768.5,509.5 C 769.82,510.942 771.486,511.608 773.5,511.5C 773.649,512.552 773.483,513.552 773,514.5C 769.489,518.873 765.989,523.206 762.5,527.5C 761.167,526.5 759.833,525.5 758.5,524.5C 762.092,519.643 765.425,514.643 768.5,509.5 Z"/></g>
<g><path style="opacity:0.796" fill="#808080" d="M 452.5,534.5 C 457.1,538.762 461.767,543.095 466.5,547.5C 465.418,549.784 463.752,550.95 461.5,551C 457.667,547.167 453.833,543.333 450,539.5C 450.058,537.565 450.891,535.898 452.5,534.5 Z"/></g>
<g><path style="opacity:0.8" fill="#808080" d="M 746.5,537.5 C 748.564,538.058 750.23,539.225 751.5,541C 747.522,544.978 743.522,548.978 739.5,553C 737.413,552.953 735.746,551.953 734.5,550C 738.681,545.986 742.681,541.819 746.5,537.5 Z"/></g>
<g><path style="opacity:0.836" fill="#7f7f7f" d="M 478.5,558.5 C 483.435,561.587 488.268,564.921 493,568.5C 492.973,570.417 492.139,572.084 490.5,573.5C 485.219,570.22 480.219,566.553 475.5,562.5C 476.524,561.148 477.524,559.815 478.5,558.5 Z"/></g>
<g><path style="opacity:0.848" fill="#808080" d="M 720.5,560.5 C 722.56,561.215 724.226,562.549 725.5,564.5C 720.597,568.535 715.43,572.202 710,575.5C 708.833,573.833 707.667,572.167 706.5,570.5C 711.576,567.639 716.243,564.305 720.5,560.5 Z"/></g>
<g><path style="opacity:0.804" fill="#808080" d="M 507.5,577.5 C 513.296,579.898 518.963,582.565 524.5,585.5C 523.667,587.167 522.833,588.833 522,590.5C 516.097,588.134 510.597,585.134 505.5,581.5C 506.18,580.14 506.847,578.807 507.5,577.5 Z"/></g>
<g><path style="opacity:0.803" fill="#7f7f7f" d="M 689.5,579.5 C 693.526,579.257 694.859,580.923 693.5,584.5C 688.62,587.107 683.62,589.44 678.5,591.5C 677.248,589.999 676.248,588.332 675.5,586.5C 680.498,584.668 685.164,582.335 689.5,579.5 Z"/></g>
<g><path style="opacity:0.801" fill="#7f7f7f" d="M 539.5,590.5 C 545.401,592.476 551.401,594.142 557.5,595.5C 557.435,597.696 556.768,599.696 555.5,601.5C 550.167,599.833 544.833,598.167 539.5,596.5C 538.481,594.54 538.481,592.54 539.5,590.5 Z"/></g>
<g><path style="opacity:0.816" fill="#7f7f7f" d="M 659.5,591.5 C 661.423,593.201 661.757,595.201 660.5,597.5C 655.011,599.622 649.344,600.956 643.5,601.5C 642.948,599.669 642.948,598.003 643.5,596.5C 649.04,595.122 654.373,593.455 659.5,591.5 Z"/></g>
<g><path style="opacity:0.792" fill="#808080" d="M 573.5,598.5 C 579.479,599.298 585.479,599.965 591.5,600.5C 591.5,602.167 591.5,603.833 591.5,605.5C 585.137,605.593 578.804,605.26 572.5,604.5C 572.833,602.5 573.167,600.5 573.5,598.5 Z"/></g>
<g><path style="opacity:0.809" fill="#7f7f7f" d="M 616.5,599.5 C 619.833,599.5 623.167,599.5 626.5,599.5C 626.421,600.93 626.754,602.264 627.5,603.5C 626.975,604.192 626.308,604.692 625.5,605C 619.843,605.499 614.176,605.666 608.5,605.5C 608.5,603.833 608.5,602.167 608.5,600.5C 611.385,600.806 614.052,600.473 616.5,599.5 Z"/></g>
</svg>
