<?xml version="1.0" encoding="UTF-8"?>
<!DOCTYPE svg PUBLIC "-//W3C//DTD SVG 1.1//EN" "http://www.w3.org/Graphics/SVG/1.1/DTD/svg11.dtd">
<svg xmlns="http://www.w3.org/2000/svg" version="1.1" width="496px" height="601px" style="shape-rendering:geometricPrecision; text-rendering:geometricPrecision; image-rendering:optimizeQuality; fill-rule:evenodd; clip-rule:evenodd" xmlns:xlink="http://www.w3.org/1999/xlink">
<g><path style="opacity:0.993" fill="#ee4b2b" d="M 245.5,-0.5 C 246.5,-0.5 247.5,-0.5 248.5,-0.5C 248.667,28.8352 248.5,58.1686 248,87.5C 200.667,134.833 153.333,182.167 106,229.5C 59.0949,287.939 49.0949,352.273 76,422.5C 113.989,501.097 176.823,538.597 264.5,535C 329.686,526.179 378.52,493.346 411,436.5C 443.367,368.219 438.367,302.886 396,240.5C 390.021,233.02 383.855,225.687 377.5,218.5C 392.153,203.347 406.986,188.347 422,173.5C 465.07,216.645 489.57,268.645 495.5,329.5C 495.5,343.5 495.5,357.5 495.5,371.5C 486.296,454.107 446.962,517.94 377.5,563C 308.232,602.881 235.899,609.548 160.5,583C 97.2806,558.115 51.114,514.949 22,453.5C 9.0814,424.379 1.5814,394.046 -0.5,362.5C -0.5,354.167 -0.5,345.833 -0.5,337.5C 3.28366,279.964 23.7837,229.297 61,185.5C 98.7286,147.938 136.229,110.272 173.5,72.5C 181.244,66.2608 188.578,59.4275 195.5,52C 195.272,51.6012 194.938,51.4346 194.5,51.5C 199.5,45.8333 204.833,40.5 210.5,35.5C 217.167,30.8333 222.833,25.1667 227.5,18.5C 233.5,12.1667 239.5,5.83333 245.5,-0.5 Z"/></g>
<g><path style="opacity:0.576" fill="#f43d1f" d="M 227.5,18.5 C 222.833,25.1667 217.167,30.8333 210.5,35.5C 215.833,29.5 221.5,23.8333 227.5,18.5 Z"/></g>
<g><path style="opacity:0.569" fill="#f33d20" d="M 194.5,51.5 C 194.938,51.4346 195.272,51.6012 195.5,52C 188.578,59.4275 181.244,66.2608 173.5,72.5C 180.167,65.1667 187.167,58.1667 194.5,51.5 Z"/></g>
<g><path style="opacity:0.988" fill="#ee4b2c" d="M 330.5,98.5 C 353.122,98.1263 365.789,109.126 368.5,131.5C 365.617,154.554 352.617,165.387 329.5,164C 309.338,158.525 300.504,145.358 303,124.5C 306.946,110.282 316.113,101.616 330.5,98.5 Z"/></g>
</svg>
