<?xml version="1.0" encoding="UTF-8"?>
<!DOCTYPE svg PUBLIC "-//W3C//DTD SVG 1.1//EN" "http://www.w3.org/Graphics/SVG/1.1/DTD/svg11.dtd">
<svg xmlns="http://www.w3.org/2000/svg" version="1.1" width="474px" height="124px" style="shape-rendering:geometricPrecision; text-rendering:geometricPrecision; image-rendering:optimizeQuality; fill-rule:evenodd; clip-rule:evenodd" xmlns:xlink="http://www.w3.org/1999/xlink">
<g><path style="opacity:1" fill="#fafbfb" d="M -0.5,-0.5 C 102.5,-0.5 205.5,-0.5 308.5,-0.5C 298.38,3.75655 289.547,10.0899 282,18.5C 279.628,21.9099 277.795,25.5766 276.5,29.5C 275.326,30.5137 274.66,31.847 274.5,33.5C 273.076,35.5145 272.41,37.8478 272.5,40.5C 270.918,43.8756 270.251,47.5422 270.5,51.5C 270.334,60.8393 270.5,70.1726 271,79.5C 272.124,85.3984 274.291,90.7317 277.5,95.5C 280.553,103.087 285.22,109.587 291.5,115C 295.973,117.884 300.306,120.718 304.5,123.5C 285.167,123.5 265.833,123.5 246.5,123.5C 246.657,122.127 246.49,120.793 246,119.5C 238.439,104.377 230.939,89.377 223.5,74.5C 223.5,73.8333 223.5,73.1667 223.5,72.5C 229.782,71.0298 235.115,68.0298 239.5,63.5C 246.044,56.2075 249.044,47.5409 248.5,37.5C 248.372,16.8662 238.039,5.03291 217.5,2C 198.17,1.50005 178.836,1.33338 159.5,1.5C 158.501,41.9966 158.168,82.6632 158.5,123.5C 142.5,123.5 126.5,123.5 110.5,123.5C 113.924,121.662 116.758,118.995 119,115.5C 122.955,104.069 119.122,97.0688 107.5,94.5C 96.5897,96.2476 92.0897,102.581 94,113.5C 96.1688,117.575 99.0022,120.908 102.5,123.5C 89.8333,123.5 77.1667,123.5 64.5,123.5C 66.4243,121.417 68.591,119.417 71,117.5C 76.8508,104.862 73.0174,97.5291 59.5,95.5C 58.1667,95.5 56.8333,95.5 55.5,95.5C 46.6284,99.6199 44.1284,106.287 48,115.5C 50.7547,118.083 53.2547,120.749 55.5,123.5C 42.8333,123.5 30.1667,123.5 17.5,123.5C 19.4243,121.417 21.591,119.417 24,117.5C 27.6355,110.857 27.3022,104.524 23,98.5C 17.8792,95.6107 12.3792,94.7773 6.5,96C 4.25045,98.4222 1.91712,100.589 -0.5,102.5C -0.5,90.8333 -0.5,79.1667 -0.5,67.5C 1.77744,69.9398 4.27744,72.2731 7,74.5C 16.3337,77.2462 22.8337,74.2462 26.5,65.5C 27.8425,61.52 27.5091,57.52 25.5,53.5C 25.0431,52.7025 24.3764,52.3691 23.5,52.5C 19.2246,48.8432 14.2246,47.6765 8.5,49C 5.04938,50.708 2.04938,52.8747 -0.5,55.5C -0.5,44.1667 -0.5,32.8333 -0.5,21.5C 2.44143,22.8021 4.77476,24.8021 6.5,27.5C 6.61071,28.1174 6.94404,28.6174 7.5,29C 11.0267,29.8075 14.3601,29.6408 17.5,28.5C 25.4045,24.359 28.0712,18.0256 25.5,9.5C 24.9202,7.25124 23.5869,5.58457 21.5,4.5C 17.6804,1.67709 13.3471,0.843756 8.5,2C 5.26077,3.73636 2.92744,6.23636 1.5,9.5C 0.833333,9.5 0.166667,9.5 -0.5,9.5C -0.5,6.16667 -0.5,2.83333 -0.5,-0.5 Z"/></g>
<g><path style="opacity:1" fill="#fbfbfb" d="M 331.5,-0.5 C 360.833,-0.5 390.167,-0.5 419.5,-0.5C 415.156,2.1782 410.49,4.6782 405.5,7C 394.433,15.9734 390.266,27.4734 393,41.5C 394.121,46.4078 396.287,50.7412 399.5,54.5C 405.701,60.6 413.034,64.6 421.5,66.5C 423.792,68.2671 426.458,69.2671 429.5,69.5C 437.987,70.909 445.653,74.2424 452.5,79.5C 453.584,80.6651 454.417,81.9984 455,83.5C 455.498,86.8168 455.665,90.1501 455.5,93.5C 453.846,99.1128 450.179,102.779 444.5,104.5C 442.901,104.232 441.568,104.566 440.5,105.5C 434.137,105.593 427.804,105.26 421.5,104.5C 417.627,103.566 413.961,102.066 410.5,100C 407.77,96.8925 404.603,94.3925 401,92.5C 396.721,95.7753 392.721,99.442 389,103.5C 390.538,107.083 393.038,110.25 396.5,113C 402.112,117.473 408.445,120.306 415.5,121.5C 415.5,122.167 415.5,122.833 415.5,123.5C 388.5,123.5 361.5,123.5 334.5,123.5C 334.328,122.508 334.662,121.842 335.5,121.5C 353.291,114.523 364.124,101.523 368,82.5C 368.994,77.882 369.494,73.2153 369.5,68.5C 371.033,59.3615 370.366,50.3615 367.5,41.5C 365.531,29.8889 360.198,20.2223 351.5,12.5C 346.499,7.02493 340.332,3.35826 333,1.5C 331.97,1.16389 331.47,0.497222 331.5,-0.5 Z"/></g>
<g><path style="opacity:1" fill="#232e4a" d="M 316.5,-0.5 C 321.5,-0.5 326.5,-0.5 331.5,-0.5C 331.47,0.497222 331.97,1.16389 333,1.5C 340.332,3.35826 346.499,7.02493 351.5,12.5C 351.5,13.5 351.5,14.5 351.5,15.5C 350.448,15.6495 349.448,15.4828 348.5,15C 349.696,14.3457 349.696,13.8457 348.5,13.5C 346.668,14.2485 345.001,15.2485 343.5,16.5C 345.316,18.8169 347.316,20.9835 349.5,23C 346.318,24.7387 342.984,24.9053 339.5,23.5C 338.926,21.9411 338.26,20.4411 337.5,19C 328.808,15.8841 319.808,14.8841 310.5,16C 310.833,16.3333 311.167,16.6667 311.5,17C 309.091,18.7068 306.425,19.5402 303.5,19.5C 303.5,18.1667 303.5,16.8333 303.5,15.5C 307.527,15.7192 308.194,14.5525 305.5,12C 301.848,11.811 299.848,13.6443 299.5,17.5C 299.977,18.4776 300.643,19.3109 301.5,20C 299.046,26.1896 294.713,28.023 288.5,25.5C 286.821,27.1045 284.821,27.7711 282.5,27.5C 282.67,26.1779 282.337,25.0113 281.5,24C 282.469,22.2417 283.636,21.7417 285,22.5C 289.053,20.4572 292.553,17.6239 295.5,14C 294.978,13.4387 294.645,12.772 294.5,12C 295.703,10.6315 296.703,9.13152 297.5,7.5C 299.274,6.81327 300.941,5.97993 302.5,5C 306.871,4.82752 311.204,4.32752 315.5,3.5C 315.788,2.13949 316.121,0.806158 316.5,-0.5 Z"/></g>
<g><path style="opacity:1" fill="#283343" d="M 21.5,4.5 C 18.813,4.32562 15.9796,4.65895 13,5.5C 11.2382,5.05563 11.4049,4.55563 13.5,4C 11.1546,3.83014 8.82125,4.16347 6.5,5C 5.18107,7.28517 3.68107,9.45183 2,11.5C 1.53566,10.9056 1.36899,10.2389 1.5,9.5C 2.92744,6.23636 5.26077,3.73636 8.5,2C 13.3471,0.843756 17.6804,1.67709 21.5,4.5 Z"/></g>
<g><path style="opacity:1" fill="#222c4e" d="M 223.5,12.5 C 223.5,10.8333 223.5,9.16667 223.5,7.5C 219.985,7.28788 216.652,7.28788 213.5,7.5C 212.522,7.02335 211.689,6.35668 211,5.5C 194.149,6.44763 177.315,6.78096 160.5,6.5C 159.702,6.04311 159.369,5.37644 159.5,4.5C 180.655,4.28522 201.655,4.28522 222.5,4.5C 227.397,4.39495 229.397,6.72828 228.5,11.5C 226.784,11.6287 225.117,11.962 223.5,12.5 Z"/></g>
<g><path style="opacity:1" fill="#242d4c" d="M 21.5,4.5 C 23.5869,5.58457 24.9202,7.25124 25.5,9.5C 24.1682,13.2639 23.3349,17.2639 23,21.5C 21.907,23.3492 20.5737,25.0158 19,26.5C 17.5589,25.7402 16.0589,25.0736 14.5,24.5C 12.5675,25.5202 10.5675,25.6869 8.5,25C 6.84937,20.8469 3.84937,18.3469 -0.5,17.5C -0.5,14.8333 -0.5,12.1667 -0.5,9.5C 0.166667,9.5 0.833333,9.5 1.5,9.5C 1.36899,10.2389 1.53566,10.9056 2,11.5C 3.68107,9.45183 5.18107,7.28517 6.5,5C 8.82125,4.16347 11.1546,3.83014 13.5,4C 11.4049,4.55563 11.2382,5.05563 13,5.5C 15.9796,4.65895 18.813,4.32562 21.5,4.5 Z"/></g>
<g><path style="opacity:1" fill="#252f46" d="M 118.5,22.5 C 118.582,20.7483 117.749,19.7483 116,19.5C 114.765,20.6155 113.598,20.6155 112.5,19.5C 111.614,20.325 111.281,21.325 111.5,22.5C 104.833,21.1667 104.833,19.8333 111.5,18.5C 111.662,16.4727 111.495,14.4727 111,12.5C 105.9,13.4407 100.733,13.4407 95.5,12.5C 95.5,14.5 95.5,16.5 95.5,18.5C 100.656,19.1413 101.656,21.4746 98.5,25.5C 96.8058,24.4726 95.4725,23.1392 94.5,21.5C 94.0371,18.5176 93.7038,15.5176 93.5,12.5C 96.2018,3.6411 102.202,0.141103 111.5,2C 120.503,6.66633 122.836,13.4997 118.5,22.5 Z"/></g>
<g><path style="opacity:1" fill="#293449" d="M 47.5,10.5 C 50.6688,2.91538 56.3354,0.0820455 64.5,2C 76.4344,9.00798 77.4344,17.3413 67.5,27C 59.8115,30.1592 53.3115,28.6592 48,22.5C 46.3682,18.4076 46.2015,14.4076 47.5,10.5 Z"/></g>
<g><path style="opacity:1" fill="#2f394f" d="M 159.5,1.5 C 159.5,2.5 159.5,3.5 159.5,4.5C 159.369,5.37644 159.702,6.04311 160.5,6.5C 177.315,6.78096 194.149,6.44763 211,5.5C 211.689,6.35668 212.522,7.02335 213.5,7.5C 216.652,7.28788 219.985,7.28788 223.5,7.5C 223.5,9.16667 223.5,10.8333 223.5,12.5C 218.719,12.3477 214.052,13.0143 209.5,14.5C 194.993,13.8416 180.493,13.175 166,12.5C 163.27,12.7056 161.103,13.7056 159.5,15.5C 159.5,51.5 159.5,87.5 159.5,123.5C 159.167,123.5 158.833,123.5 158.5,123.5C 158.168,82.6632 158.501,41.9966 159.5,1.5 Z"/></g>
<g><path style="opacity:1" fill="#242b50" d="M 223.5,12.5 C 223.5,13.5 223.5,14.5 223.5,15.5C 224.675,15.281 225.675,15.6143 226.5,16.5C 225.372,17.2621 224.205,17.9288 223,18.5C 218.873,16.8534 214.54,15.8534 210,15.5C 203.926,16.7248 197.76,17.3915 191.5,17.5C 180.823,16.8314 170.156,16.1647 159.5,15.5C 161.103,13.7056 163.27,12.7056 166,12.5C 180.493,13.175 194.993,13.8416 209.5,14.5C 214.052,13.0143 218.719,12.3477 223.5,12.5 Z"/></g>
<g><path style="opacity:1" fill="#252f4a" d="M 419.5,-0.5 C 427.5,-0.5 435.5,-0.5 443.5,-0.5C 452.464,3.16114 460.797,8.16114 468.5,14.5C 469.583,15.365 469.749,16.365 469,17.5C 465.592,21.6886 461.759,25.3553 457.5,28.5C 452.63,24.5644 447.296,21.3977 441.5,19C 434.5,18.3333 427.5,18.3333 420.5,19C 413.079,22.0052 409.912,27.5052 411,35.5C 412.012,38.2018 413.512,40.5351 415.5,42.5C 414.101,45.3903 411.768,46.8903 408.5,47C 412.871,47.1725 417.204,47.6725 421.5,48.5C 418.917,51.2955 416.583,54.2955 414.5,57.5C 412.958,56.2532 411.458,56.2532 410,57.5C 408.04,55.2145 405.874,53.2145 403.5,51.5C 400.972,52.4978 400.972,53.3311 403.5,54C 402.436,55.5106 401.103,55.6772 399.5,54.5C 396.287,50.7412 394.121,46.4078 393,41.5C 390.266,27.4734 394.433,15.9734 405.5,7C 410.49,4.6782 415.156,2.1782 419.5,-0.5 Z"/></g>
<g><path style="opacity:1" fill="#b1afbd" d="M 93.5,12.5 C 93.7038,15.5176 94.0371,18.5176 94.5,21.5C 92.5185,18.6274 92.1851,15.6274 93.5,12.5 Z"/></g>
<g><path style="opacity:1" fill="#242e47" d="M 159.5,1.5 C 178.836,1.33338 198.17,1.50005 217.5,2C 238.039,5.03291 248.372,16.8662 248.5,37.5C 249.044,47.5409 246.044,56.2075 239.5,63.5C 239.369,59.6225 238.369,56.1225 236.5,53C 236.396,50.8546 237.063,49.0212 238.5,47.5C 239.495,42.2079 239.828,36.8746 239.5,31.5C 240.5,31.5 241.5,31.5 242.5,31.5C 242.5,36.8333 242.5,42.1667 242.5,47.5C 243.833,47.5 245.167,47.5 246.5,47.5C 246.5,42.1667 246.5,36.8333 246.5,31.5C 245.5,31.5 244.5,31.5 243.5,31.5C 243.577,27.7852 243.244,24.1185 242.5,20.5C 241.5,20.5 240.5,20.5 239.5,20.5C 239.5,18.8333 239.5,17.1667 239.5,15.5C 237.5,15.5 235.5,15.5 233.5,15.5C 232.474,19.4108 231.14,23.2441 229.5,27C 230.148,28.4397 230.481,29.9397 230.5,31.5C 231.833,31.5 233.167,31.5 234.5,31.5C 234.833,36.8333 235.167,42.1667 235.5,47.5C 233.712,47.2148 232.045,47.5481 230.5,48.5C 229.717,50.2882 228.384,51.2882 226.5,51.5C 232.043,42.1032 231.709,32.9365 225.5,24C 222.222,22.1909 218.889,20.6909 215.5,19.5C 202.677,18.5045 189.677,18.1712 176.5,18.5C 176.5,31.5 176.5,44.5 176.5,57.5C 188.833,57.5 201.167,57.5 213.5,57.5C 211.631,58.1646 209.631,58.8313 207.5,59.5C 200.833,60.1667 194.167,60.8333 187.5,61.5C 187.291,62.086 186.957,62.586 186.5,63C 190.167,63.3333 193.833,63.6667 197.5,64C 196.672,64.9147 195.672,65.5814 194.5,66C 196.167,66.3333 197.833,66.6667 199.5,67C 191.507,67.4997 183.507,67.6664 175.5,67.5C 175.5,69.1667 175.5,70.8333 175.5,72.5C 176.93,72.4208 178.264,72.7542 179.5,73.5C 179.833,72.8333 180.167,72.1667 180.5,71.5C 183.985,71.6886 187.652,71.6886 191.5,71.5C 191.5,72.5 191.5,73.5 191.5,74.5C 186.305,74.1795 181.305,74.5128 176.5,75.5C 176.5,91.5 176.5,107.5 176.5,123.5C 170.833,123.5 165.167,123.5 159.5,123.5C 159.5,87.5 159.5,51.5 159.5,15.5C 170.156,16.1647 180.823,16.8314 191.5,17.5C 197.76,17.3915 203.926,16.7248 210,15.5C 214.54,15.8534 218.873,16.8534 223,18.5C 224.205,17.9288 225.372,17.2621 226.5,16.5C 225.675,15.6143 224.675,15.281 223.5,15.5C 223.5,14.5 223.5,13.5 223.5,12.5C 225.117,11.962 226.784,11.6287 228.5,11.5C 229.397,6.72828 227.397,4.39495 222.5,4.5C 201.655,4.28522 180.655,4.28522 159.5,4.5C 159.5,3.5 159.5,2.5 159.5,1.5 Z"/></g>
<g><path style="opacity:1" fill="#232d4c" d="M 47.5,10.5 C 50.3262,8.50427 53.3262,6.8376 56.5,5.5C 58.5683,5.96721 60.5683,6.63388 62.5,7.5C 63.935,5.59887 65.6017,5.26553 67.5,6.5C 69.2562,8.19134 69.7562,10.1913 69,12.5C 67.3547,12.6932 65.5213,12.8598 63.5,13C 64.3081,13.3076 64.9747,13.8076 65.5,14.5C 63.9951,15.8415 63.3285,17.5082 63.5,19.5C 65.1667,19.5 66.8333,19.5 68.5,19.5C 68.082,22.4389 66.582,24.7722 64,26.5C 63.6667,25.5 63.3333,24.5 63,23.5C 60.3199,23.9847 57.6532,24.3181 55,24.5C 53.908,21.9556 53.2414,19.2889 53,16.5C 51.3005,15.5939 49.4672,15.2606 47.5,15.5C 47.5,13.8333 47.5,12.1667 47.5,10.5 Z"/></g>
<g><path style="opacity:1" fill="#252d4b" d="M 118.5,22.5 C 114.271,28.2044 108.604,30.0377 101.5,28C 100.058,27.6232 99.0577,26.7899 98.5,25.5C 101.656,21.4746 100.656,19.1413 95.5,18.5C 95.5,16.5 95.5,14.5 95.5,12.5C 100.733,13.4407 105.9,13.4407 111,12.5C 111.495,14.4727 111.662,16.4727 111.5,18.5C 104.833,19.8333 104.833,21.1667 111.5,22.5C 111.281,21.325 111.614,20.325 112.5,19.5C 113.598,20.6155 114.765,20.6155 116,19.5C 117.749,19.7483 118.582,20.7483 118.5,22.5 Z"/></g>
<g><path style="opacity:1" fill="#fbfbfb" d="M 328.5,19.5 C 341.824,25.3615 349.324,35.6948 351,50.5C 353.22,66.5601 350.387,81.5601 342.5,95.5C 340.5,96.8333 338.833,98.5 337.5,100.5C 334.522,101.989 331.522,103.489 328.5,105C 323.845,105.499 319.179,105.666 314.5,105.5C 307.937,104.555 302.604,101.555 298.5,96.5C 289.184,82.2139 286.018,66.5473 289,49.5C 290.345,41.4781 293.345,34.1448 298,27.5C 300.956,24.2776 304.456,21.9442 308.5,20.5C 309.496,20.4142 310.329,20.7476 311,21.5C 316.536,19.5745 322.369,18.9078 328.5,19.5 Z"/></g>
<g><path style="opacity:1" fill="#f8f9f9" d="M 443.5,-0.5 C 453.5,-0.5 463.5,-0.5 473.5,-0.5C 473.5,24.5 473.5,49.5 473.5,74.5C 471.224,72.6694 469.391,70.3361 468,67.5C 466.549,65.5359 464.716,64.2026 462.5,63.5C 460.287,61.1397 457.621,59.3063 454.5,58C 444.284,54.0611 433.95,50.3944 423.5,47C 420.688,45.6723 418.022,44.1723 415.5,42.5C 413.512,40.5351 412.012,38.2018 411,35.5C 409.912,27.5052 413.079,22.0052 420.5,19C 427.5,18.3333 434.5,18.3333 441.5,19C 447.296,21.3977 452.63,24.5644 457.5,28.5C 461.759,25.3553 465.592,21.6886 469,17.5C 469.749,16.365 469.583,15.365 468.5,14.5C 460.797,8.16114 452.464,3.16114 443.5,-0.5 Z"/></g>
<g><path style="opacity:1" fill="#fbfcfb" d="M 215.5,19.5 C 218.889,20.6909 222.222,22.1909 225.5,24C 231.709,32.9365 232.043,42.1032 226.5,51.5C 223.954,54.6453 220.62,56.312 216.5,56.5C 203.5,56.5 190.5,56.5 177.5,56.5C 177.5,44.1667 177.5,31.8333 177.5,19.5C 190.167,19.5 202.833,19.5 215.5,19.5 Z"/></g>
<g><path style="opacity:1" fill="#273146" d="M 25.5,9.5 C 28.0712,18.0256 25.4045,24.359 17.5,28.5C 13.7657,28.6773 10.0991,28.3439 6.5,27.5C 4.77476,24.8021 2.44143,22.8021 -0.5,21.5C -0.5,20.1667 -0.5,18.8333 -0.5,17.5C 3.84937,18.3469 6.84937,20.8469 8.5,25C 10.5675,25.6869 12.5675,25.5202 14.5,24.5C 16.0589,25.0736 17.5589,25.7402 19,26.5C 20.5737,25.0158 21.907,23.3492 23,21.5C 23.3349,17.2639 24.1682,13.2639 25.5,9.5 Z"/></g>
<g><path style="opacity:1" fill="#253048" d="M 308.5,-0.5 C 311.167,-0.5 313.833,-0.5 316.5,-0.5C 316.121,0.806158 315.788,2.13949 315.5,3.5C 311.204,4.32752 306.871,4.82752 302.5,5C 300.941,5.97993 299.274,6.81327 297.5,7.5C 296.703,9.13152 295.703,10.6315 294.5,12C 294.645,12.772 294.978,13.4387 295.5,14C 292.553,17.6239 289.053,20.4572 285,22.5C 283.636,21.7417 282.469,22.2417 281.5,24C 282.337,25.0113 282.67,26.1779 282.5,27.5C 284.821,27.7711 286.821,27.1045 288.5,25.5C 294.713,28.023 299.046,26.1896 301.5,20C 300.643,19.3109 299.977,18.4776 299.5,17.5C 299.848,13.6443 301.848,11.811 305.5,12C 308.194,14.5525 307.527,15.7192 303.5,15.5C 303.5,16.8333 303.5,18.1667 303.5,19.5C 306.425,19.5402 309.091,18.7068 311.5,17C 311.167,16.6667 310.833,16.3333 310.5,16C 319.808,14.8841 328.808,15.8841 337.5,19C 338.26,20.4411 338.926,21.9411 339.5,23.5C 342.984,24.9053 346.318,24.7387 349.5,23C 347.316,20.9835 345.316,18.8169 343.5,16.5C 345.001,15.2485 346.668,14.2485 348.5,13.5C 349.696,13.8457 349.696,14.3457 348.5,15C 349.448,15.4828 350.448,15.6495 351.5,15.5C 351.5,14.5 351.5,13.5 351.5,12.5C 360.198,20.2223 365.531,29.8889 367.5,41.5C 368.754,50.4519 369.42,59.4519 369.5,68.5C 369.494,73.2153 368.994,77.882 368,82.5C 364.124,101.523 353.291,114.523 335.5,121.5C 335.286,119.856 335.62,118.356 336.5,117C 340.827,117.157 344.16,115.49 346.5,112C 342.848,111.501 339.182,111.335 335.5,111.5C 335.684,108.679 334.351,107.012 331.5,106.5C 325.626,107.902 319.959,107.569 314.5,105.5C 319.179,105.666 323.845,105.499 328.5,105C 331.522,103.489 334.522,101.989 337.5,100.5C 335.832,102.479 335.166,104.812 335.5,107.5C 339.226,107.823 342.893,107.489 346.5,106.5C 347.426,102.906 347.759,99.2396 347.5,95.5C 345.833,95.5 344.167,95.5 342.5,95.5C 350.387,81.5601 353.22,66.5601 351,50.5C 349.324,35.6948 341.824,25.3615 328.5,19.5C 322.681,18.3475 316.681,18.1808 310.5,19C 309.584,19.2784 308.918,19.7784 308.5,20.5C 304.456,21.9442 300.956,24.2776 298,27.5C 293.345,34.1448 290.345,41.4781 289,49.5C 286.018,66.5473 289.184,82.2139 298.5,96.5C 294.961,95.9 292.295,94.0667 290.5,91C 292.396,89.9354 292.563,89.1021 291,88.5C 290.055,88.9054 289.388,89.572 289,90.5C 288.667,89.5 288.333,88.5 288,87.5C 287.833,71.4896 287.333,55.4896 286.5,39.5C 284.771,37.1489 284.104,34.4822 284.5,31.5C 282.167,31.5 279.833,31.5 277.5,31.5C 277.779,34.1178 278.446,36.6178 279.5,39C 278.874,39.7504 278.374,40.5838 278,41.5C 275.625,37.821 275.125,33.821 276.5,29.5C 277.795,25.5766 279.628,21.9099 282,18.5C 289.547,10.0899 298.38,3.75655 308.5,-0.5 Z"/></g>
<g><path style="opacity:1" fill="#bbbfcc" d="M 328.5,19.5 C 322.369,18.9078 316.536,19.5745 311,21.5C 310.329,20.7476 309.496,20.4142 308.5,20.5C 308.918,19.7784 309.584,19.2784 310.5,19C 316.681,18.1808 322.681,18.3475 328.5,19.5 Z"/></g>
<g><path style="opacity:1" fill="#9399a1" d="M 6.5,27.5 C 10.0991,28.3439 13.7657,28.6773 17.5,28.5C 14.3601,29.6408 11.0267,29.8075 7.5,29C 6.94404,28.6174 6.61071,28.1174 6.5,27.5 Z"/></g>
<g><path style="opacity:1" fill="#b1b5c1" d="M 215.5,19.5 C 202.833,19.5 190.167,19.5 177.5,19.5C 177.5,31.8333 177.5,44.1667 177.5,56.5C 190.5,56.5 203.5,56.5 216.5,56.5C 215.791,57.404 214.791,57.7373 213.5,57.5C 201.167,57.5 188.833,57.5 176.5,57.5C 176.5,44.5 176.5,31.5 176.5,18.5C 189.677,18.1712 202.677,18.5045 215.5,19.5 Z"/></g>
<g><path style="opacity:1" fill="#6f717f" d="M 274.5,33.5 C 274.59,36.1522 273.924,38.4855 272.5,40.5C 272.41,37.8478 273.076,35.5145 274.5,33.5 Z"/></g>
<g><path style="opacity:1" fill="#767a8b" d="M 272.5,40.5 C 272.354,44.3875 271.687,48.0542 270.5,51.5C 270.251,47.5422 270.918,43.8756 272.5,40.5 Z"/></g>
<g><path style="opacity:1" fill="#242f47" d="M 415.5,42.5 C 418.022,44.1723 420.688,45.6723 423.5,47C 433.95,50.3944 444.284,54.0611 454.5,58C 457.621,59.3063 460.287,61.1397 462.5,63.5C 461.167,63.5 459.833,63.5 458.5,63.5C 458.5,66.8333 460.167,68.5 463.5,68.5C 463.813,71.2469 463.48,73.9135 462.5,76.5C 459.971,75.0403 457.304,74.5403 454.5,75C 456.03,79.122 457.363,83.622 458.5,88.5C 457.294,90.5159 457.294,92.5159 458.5,94.5C 459.086,94.2907 459.586,93.9574 460,93.5C 460.217,88.708 461.05,84.0413 462.5,79.5C 463.665,88.4815 463.832,97.4815 463,106.5C 461.989,105.663 460.822,105.33 459.5,105.5C 459.383,101.005 458.049,97.0048 455.5,93.5C 455.665,90.1501 455.498,86.8168 455,83.5C 454.417,81.9984 453.584,80.6651 452.5,79.5C 445.653,74.2424 437.987,70.909 429.5,69.5C 427.208,67.7329 424.542,66.7329 421.5,66.5C 413.034,64.6 405.701,60.6 399.5,54.5C 401.103,55.6772 402.436,55.5106 403.5,54C 400.972,53.3311 400.972,52.4978 403.5,51.5C 405.874,53.2145 408.04,55.2145 410,57.5C 411.458,56.2532 412.958,56.2532 414.5,57.5C 416.583,54.2955 418.917,51.2955 421.5,48.5C 417.204,47.6725 412.871,47.1725 408.5,47C 411.768,46.8903 414.101,45.3903 415.5,42.5 Z"/></g>
<g><path style="opacity:1" fill="#9b9fac" d="M 23.5,52.5 C 24.3764,52.3691 25.0431,52.7025 25.5,53.5C 27.5091,57.52 27.8425,61.52 26.5,65.5C 26.8809,60.8143 25.8809,56.4809 23.5,52.5 Z"/></g>
<g><path style="opacity:1" fill="#243145" d="M 239.5,63.5 C 235.115,68.0298 229.782,71.0298 223.5,72.5C 223.5,71.1667 223.5,69.8333 223.5,68.5C 226.271,68.5793 228.937,68.0793 231.5,67C 232.337,65.9887 232.67,64.8221 232.5,63.5C 227.156,63.666 221.823,63.4994 216.5,63C 220.199,62.0916 223.532,60.5916 226.5,58.5C 228.867,58.8417 231.2,59.3417 233.5,60C 234.337,61.0113 234.67,62.1779 234.5,63.5C 236.167,63.5 237.833,63.5 239.5,63.5 Z"/></g>
<g><path style="opacity:1" fill="#222d4d" d="M 429.5,57.5 C 430.873,57.3433 432.207,57.51 433.5,58C 432.027,58.7096 431.36,59.8762 431.5,61.5C 434.62,61.1559 437.453,61.8225 440,63.5C 441.286,62.65 441.119,61.4834 439.5,60C 444.663,57.4325 448.997,58.4325 452.5,63C 451.692,63.3076 451.025,63.8076 450.5,64.5C 451.785,67.0205 452.452,69.6872 452.5,72.5C 449.316,72.1669 445.982,72.0002 442.5,72C 441.257,70.8455 440.257,69.5122 439.5,68C 436.042,67.4028 432.709,66.4028 429.5,65C 430.5,64.6667 431.5,64.3333 432.5,64C 424.453,64.3413 423.453,62.1747 429.5,57.5 Z"/></g>
<g><path style="opacity:1" fill="#636a74" d="M 367.5,41.5 C 370.366,50.3615 371.033,59.3615 369.5,68.5C 369.42,59.4519 368.754,50.4519 367.5,41.5 Z"/></g>
<g><path style="opacity:1" fill="#232d4b" d="M 239.5,63.5 C 237.833,63.5 236.167,63.5 234.5,63.5C 234.67,62.1779 234.337,61.0113 233.5,60C 231.2,59.3417 228.867,58.8417 226.5,58.5C 223.532,60.5916 220.199,62.0916 216.5,63C 221.823,63.4994 227.156,63.666 232.5,63.5C 232.67,64.8221 232.337,65.9887 231.5,67C 228.937,68.0793 226.271,68.5793 223.5,68.5C 223.5,69.8333 223.5,71.1667 223.5,72.5C 223.5,73.1667 223.5,73.8333 223.5,74.5C 223.134,81.3679 224.8,87.7012 228.5,93.5C 227.15,94.9501 225.484,95.6168 223.5,95.5C 222.612,90.22 221.612,84.8866 220.5,79.5C 217.15,79.335 213.817,79.5017 210.5,80C 209.837,81.5185 208.837,82.6851 207.5,83.5C 206.404,80.9684 205.071,78.6351 203.5,76.5C 199.971,74.5772 195.971,73.9106 191.5,74.5C 191.5,73.5 191.5,72.5 191.5,71.5C 187.652,71.6886 183.985,71.6886 180.5,71.5C 180.167,72.1667 179.833,72.8333 179.5,73.5C 178.264,72.7542 176.93,72.4208 175.5,72.5C 175.5,70.8333 175.5,69.1667 175.5,67.5C 183.507,67.6664 191.507,67.4997 199.5,67C 197.833,66.6667 196.167,66.3333 194.5,66C 195.672,65.5814 196.672,64.9147 197.5,64C 193.833,63.6667 190.167,63.3333 186.5,63C 186.957,62.586 187.291,62.086 187.5,61.5C 194.167,60.8333 200.833,60.1667 207.5,59.5C 209.631,58.8313 211.631,58.1646 213.5,57.5C 214.791,57.7373 215.791,57.404 216.5,56.5C 220.62,56.312 223.954,54.6453 226.5,51.5C 228.384,51.2882 229.717,50.2882 230.5,48.5C 232.045,47.5481 233.712,47.2148 235.5,47.5C 235.167,42.1667 234.833,36.8333 234.5,31.5C 233.167,31.5 231.833,31.5 230.5,31.5C 230.481,29.9397 230.148,28.4397 229.5,27C 231.14,23.2441 232.474,19.4108 233.5,15.5C 235.5,15.5 237.5,15.5 239.5,15.5C 239.5,17.1667 239.5,18.8333 239.5,20.5C 240.5,20.5 241.5,20.5 242.5,20.5C 243.244,24.1185 243.577,27.7852 243.5,31.5C 244.5,31.5 245.5,31.5 246.5,31.5C 246.5,36.8333 246.5,42.1667 246.5,47.5C 245.167,47.5 243.833,47.5 242.5,47.5C 242.5,42.1667 242.5,36.8333 242.5,31.5C 241.5,31.5 240.5,31.5 239.5,31.5C 239.828,36.8746 239.495,42.2079 238.5,47.5C 237.063,49.0212 236.396,50.8546 236.5,53C 238.369,56.1225 239.369,59.6225 239.5,63.5 Z"/></g>
<g><path style="opacity:1" fill="#242f4c" d="M 276.5,29.5 C 275.125,33.821 275.625,37.821 278,41.5C 278.374,40.5838 278.874,39.7504 279.5,39C 278.446,36.6178 277.779,34.1178 277.5,31.5C 279.833,31.5 282.167,31.5 284.5,31.5C 284.104,34.4822 284.771,37.1489 286.5,39.5C 287.333,55.4896 287.833,71.4896 288,87.5C 288.333,88.5 288.667,89.5 289,90.5C 289.388,89.572 290.055,88.9054 291,88.5C 292.563,89.1021 292.396,89.9354 290.5,91C 292.295,94.0667 294.961,95.9 298.5,96.5C 302.604,101.555 307.937,104.555 314.5,105.5C 319.959,107.569 325.626,107.902 331.5,106.5C 334.351,107.012 335.684,108.679 335.5,111.5C 339.182,111.335 342.848,111.501 346.5,112C 344.16,115.49 340.827,117.157 336.5,117C 335.62,118.356 335.286,119.856 335.5,121.5C 334.662,121.842 334.328,122.508 334.5,123.5C 327.5,123.5 320.5,123.5 313.5,123.5C 313.67,122.178 313.337,121.011 312.5,120C 314.765,118.882 317.099,118.049 319.5,117.5C 319.5,114.833 319.5,112.167 319.5,109.5C 316.434,109.65 313.267,109.984 310,110.5C 309.702,111.58 310.869,111.914 313.5,111.5C 313.67,112.822 313.337,113.989 312.5,115C 305.985,117.491 300.318,116.491 295.5,112C 298.146,111.503 300.813,111.336 303.5,111.5C 303.5,110.167 303.5,108.833 303.5,107.5C 299.774,107.823 296.107,107.489 292.5,106.5C 291.574,102.906 291.241,99.2396 291.5,95.5C 288.833,95.5 286.167,95.5 283.5,95.5C 283.5,90.1667 283.5,84.8333 283.5,79.5C 282.5,79.5 281.5,79.5 280.5,79.5C 280.035,83.3994 279.368,87.2328 278.5,91C 280.043,93.0449 279.71,94.5449 277.5,95.5C 274.291,90.7317 272.124,85.3984 271,79.5C 270.5,70.1726 270.334,60.8393 270.5,51.5C 271.687,48.0542 272.354,44.3875 272.5,40.5C 273.924,38.4855 274.59,36.1522 274.5,33.5C 274.66,31.847 275.326,30.5137 276.5,29.5 Z"/></g>
<g><path style="opacity:1" fill="#252f47" d="M 23.5,52.5 C 25.8809,56.4809 26.8809,60.8143 26.5,65.5C 22.8337,74.2462 16.3337,77.2462 7,74.5C 4.27744,72.2731 1.77744,69.9398 -0.5,67.5C -0.5,63.5 -0.5,59.5 -0.5,55.5C 2.04938,52.8747 5.04938,50.708 8.5,49C 14.2246,47.6765 19.2246,48.8432 23.5,52.5 Z"/></g>
<g><path style="opacity:1" fill="#a2a7b3" d="M 421.5,66.5 C 424.542,66.7329 427.208,67.7329 429.5,69.5C 426.458,69.2671 423.792,68.2671 421.5,66.5 Z"/></g>
<g><path style="opacity:1" fill="#273045" d="M 70.5,53.5 C 75.0171,60.4956 74.3504,66.9956 68.5,73C 53.5847,78.4649 46.418,73.2982 47,57.5C 50.2435,49.462 56.0768,46.6287 64.5,49C 67.1767,49.8136 69.1767,51.3136 70.5,53.5 Z"/></g>
<g><path style="opacity:1" fill="#222e4c" d="M 70.5,53.5 C 70.7155,57.2741 68.7155,59.6075 64.5,60.5C 64.1667,61.1667 63.8333,61.8333 63.5,62.5C 64.8333,63.1667 66.1667,63.8333 67.5,64.5C 66.6924,66.9252 65.6924,69.2585 64.5,71.5C 60.1493,73.6496 56.4827,72.4829 53.5,68C 53.8333,67.6667 54.1667,67.3333 54.5,67C 51.7419,63.4818 50.7419,59.6484 51.5,55.5C 53.8495,52.9004 56.6828,50.9004 60,49.5C 63.2139,51.6395 66.7139,52.9729 70.5,53.5 Z"/></g>
<g><path style="opacity:1" fill="#242e49" d="M 117.5,53.5 C 116.37,60.6288 114.704,67.6288 112.5,74.5C 98.8246,76.991 92.6579,71.3243 94,57.5C 97.3862,50.058 103.22,47.2247 111.5,49C 113.747,50.2775 115.747,51.7775 117.5,53.5 Z"/></g>
<g><path style="opacity:1" fill="#2c3443" d="M 117.5,53.5 C 122.689,62.1285 121.022,69.1285 112.5,74.5C 114.704,67.6288 116.37,60.6288 117.5,53.5 Z"/></g>
<g><path style="opacity:1" fill="#cdd3e0" d="M 176.5,75.5 C 181.305,74.5128 186.305,74.1795 191.5,74.5C 195.971,73.9106 199.971,74.5772 203.5,76.5C 194.584,75.5289 185.584,75.1956 176.5,75.5 Z"/></g>
<g><path style="opacity:1" fill="#fbfcfb" d="M 176.5,75.5 C 185.584,75.1956 194.584,75.5289 203.5,76.5C 205.071,78.6351 206.404,80.9684 207.5,83.5C 212.808,95.4501 218.642,107.117 225,118.5C 225.494,120.134 225.66,121.801 225.5,123.5C 209.167,123.5 192.833,123.5 176.5,123.5C 176.5,107.5 176.5,91.5 176.5,75.5 Z"/></g>
<g><path style="opacity:1" fill="#25304a" d="M 223.5,74.5 C 230.939,89.377 238.439,104.377 246,119.5C 246.49,120.793 246.657,122.127 246.5,123.5C 239.5,123.5 232.5,123.5 225.5,123.5C 225.66,121.801 225.494,120.134 225,118.5C 218.642,107.117 212.808,95.4501 207.5,83.5C 208.837,82.6851 209.837,81.5185 210.5,80C 213.817,79.5017 217.15,79.335 220.5,79.5C 221.612,84.8866 222.612,90.22 223.5,95.5C 225.484,95.6168 227.15,94.9501 228.5,93.5C 224.8,87.7012 223.134,81.3679 223.5,74.5 Z"/></g>
<g><path style="opacity:1" fill="#222f47" d="M 313.5,123.5 C 310.5,123.5 307.5,123.5 304.5,123.5C 300.306,120.718 295.973,117.884 291.5,115C 285.22,109.587 280.553,103.087 277.5,95.5C 279.71,94.5449 280.043,93.0449 278.5,91C 279.368,87.2328 280.035,83.3994 280.5,79.5C 281.5,79.5 282.5,79.5 283.5,79.5C 283.5,84.8333 283.5,90.1667 283.5,95.5C 286.167,95.5 288.833,95.5 291.5,95.5C 291.241,99.2396 291.574,102.906 292.5,106.5C 296.107,107.489 299.774,107.823 303.5,107.5C 303.5,108.833 303.5,110.167 303.5,111.5C 300.813,111.336 298.146,111.503 295.5,112C 300.318,116.491 305.985,117.491 312.5,115C 313.337,113.989 313.67,112.822 313.5,111.5C 310.869,111.914 309.702,111.58 310,110.5C 313.267,109.984 316.434,109.65 319.5,109.5C 319.5,112.167 319.5,114.833 319.5,117.5C 317.099,118.049 314.765,118.882 312.5,120C 313.337,121.011 313.67,122.178 313.5,123.5 Z"/></g>
<g><path style="opacity:1" fill="#252d4e" d="M 342.5,95.5 C 344.167,95.5 345.833,95.5 347.5,95.5C 347.759,99.2396 347.426,102.906 346.5,106.5C 342.893,107.489 339.226,107.823 335.5,107.5C 335.166,104.812 335.832,102.479 337.5,100.5C 338.833,98.5 340.5,96.8333 342.5,95.5 Z"/></g>
<g><path style="opacity:1" fill="#263049" d="M 55.5,95.5 C 54.1286,97.2592 53.1286,99.2592 52.5,101.5C 51.2713,102.281 49.938,102.781 48.5,103C 48.8333,103.333 49.1667,103.667 49.5,104C 48.0267,104.71 47.3601,105.876 47.5,107.5C 49.1439,107.714 50.6439,107.38 52,106.5C 52.9147,107.328 53.5814,108.328 54,109.5C 55.1313,108.396 55.9646,108.729 56.5,110.5C 55.1667,111.167 53.8333,111.833 52.5,112.5C 53.9549,114.22 54.7883,116.22 55,118.5C 60.5307,118.134 63.364,115.134 63.5,109.5C 60.9153,105.051 59.5819,100.385 59.5,95.5C 73.0174,97.5291 76.8508,104.862 71,117.5C 68.591,119.417 66.4243,121.417 64.5,123.5C 61.5,123.5 58.5,123.5 55.5,123.5C 53.2547,120.749 50.7547,118.083 48,115.5C 44.1284,106.287 46.6284,99.6199 55.5,95.5 Z"/></g>
<g><path style="opacity:1" fill="#232c4e" d="M 55.5,95.5 C 56.8333,95.5 58.1667,95.5 59.5,95.5C 59.5819,100.385 60.9153,105.051 63.5,109.5C 63.364,115.134 60.5307,118.134 55,118.5C 54.7883,116.22 53.9549,114.22 52.5,112.5C 53.8333,111.833 55.1667,111.167 56.5,110.5C 55.9646,108.729 55.1313,108.396 54,109.5C 53.5814,108.328 52.9147,107.328 52,106.5C 50.6439,107.38 49.1439,107.714 47.5,107.5C 47.3601,105.876 48.0267,104.71 49.5,104C 49.1667,103.667 48.8333,103.333 48.5,103C 49.938,102.781 51.2713,102.281 52.5,101.5C 53.1286,99.2592 54.1286,97.2592 55.5,95.5 Z"/></g>
<g><path style="opacity:1" fill="#25304a" d="M 17.5,123.5 C 14.5,123.5 11.5,123.5 8.5,123.5C 8.63101,122.761 8.46434,122.094 8,121.5C 4.32367,119.973 1.49034,117.64 -0.5,114.5C -0.5,110.5 -0.5,106.5 -0.5,102.5C 1.91712,100.589 4.25045,98.4222 6.5,96C 12.3792,94.7773 17.8792,95.6107 23,98.5C 27.3022,104.524 27.6355,110.857 24,117.5C 21.591,119.417 19.4243,121.417 17.5,123.5 Z"/></g>
<g><path style="opacity:1" fill="#262f48" d="M 421.5,104.5 C 424.865,106.039 428.531,106.706 432.5,106.5C 435.355,106.497 438.022,106.164 440.5,105.5C 441.568,104.566 442.901,104.232 444.5,104.5C 443.737,105.268 442.737,105.768 441.5,106C 442.167,106.333 442.833,106.667 443.5,107C 442,107.833 440.833,109 440,110.5C 435.381,109.779 430.714,109.113 426,108.5C 422.641,109.167 419.308,108.834 416,107.5C 415.501,112.155 415.334,116.821 415.5,121.5C 408.445,120.306 402.112,117.473 396.5,113C 393.038,110.25 390.538,107.083 389,103.5C 392.721,99.442 396.721,95.7753 401,92.5C 404.603,94.3925 407.77,96.8925 410.5,100C 413.961,102.066 417.627,103.566 421.5,104.5 Z"/></g>
<g><path style="opacity:1" fill="#7a7d8b" d="M 421.5,104.5 C 427.804,105.26 434.137,105.593 440.5,105.5C 438.022,106.164 435.355,106.497 432.5,106.5C 428.531,106.706 424.865,106.039 421.5,104.5 Z"/></g>
<g><path style="opacity:1" fill="#263146" d="M 471.5,101.5 C 467.693,111.971 460.359,118.638 449.5,121.5C 451.353,119.554 453.686,118.054 456.5,117C 455.939,115.434 456.606,114.101 458.5,113C 455.042,111.585 451.375,111.085 447.5,111.5C 448.543,107.315 451.209,105.815 455.5,107C 456.743,108.154 457.743,109.488 458.5,111C 460.134,111.494 461.801,111.66 463.5,111.5C 463.281,110.325 463.614,109.325 464.5,108.5C 466.892,106.108 469.225,103.775 471.5,101.5 Z"/></g>
<g><path style="opacity:1" fill="#232e4c" d="M 462.5,63.5 C 464.716,64.2026 466.549,65.5359 468,67.5C 469.391,70.3361 471.224,72.6694 473.5,74.5C 473.5,83.5 473.5,92.5 473.5,101.5C 472.833,101.5 472.167,101.5 471.5,101.5C 469.225,103.775 466.892,106.108 464.5,108.5C 463.614,109.325 463.281,110.325 463.5,111.5C 461.801,111.66 460.134,111.494 458.5,111C 457.743,109.488 456.743,108.154 455.5,107C 451.209,105.815 448.543,107.315 447.5,111.5C 451.375,111.085 455.042,111.585 458.5,113C 456.606,114.101 455.939,115.434 456.5,117C 453.686,118.054 451.353,119.554 449.5,121.5C 448.662,121.842 448.328,122.508 448.5,123.5C 437.5,123.5 426.5,123.5 415.5,123.5C 415.5,122.833 415.5,122.167 415.5,121.5C 415.334,116.821 415.501,112.155 416,107.5C 419.308,108.834 422.641,109.167 426,108.5C 430.714,109.113 435.381,109.779 440,110.5C 440.833,109 442,107.833 443.5,107C 442.833,106.667 442.167,106.333 441.5,106C 442.737,105.768 443.737,105.268 444.5,104.5C 450.179,102.779 453.846,99.1128 455.5,93.5C 458.049,97.0048 459.383,101.005 459.5,105.5C 460.822,105.33 461.989,105.663 463,106.5C 463.832,97.4815 463.665,88.4815 462.5,79.5C 461.05,84.0413 460.217,88.708 460,93.5C 459.586,93.9574 459.086,94.2907 458.5,94.5C 457.294,92.5159 457.294,90.5159 458.5,88.5C 457.363,83.622 456.03,79.122 454.5,75C 457.304,74.5403 459.971,75.0403 462.5,76.5C 463.48,73.9135 463.813,71.2469 463.5,68.5C 460.167,68.5 458.5,66.8333 458.5,63.5C 459.833,63.5 461.167,63.5 462.5,63.5 Z"/></g>
<g><path style="opacity:1" fill="#27304b" d="M 110.5,123.5 C 107.833,123.5 105.167,123.5 102.5,123.5C 99.0022,120.908 96.1688,117.575 94,113.5C 92.0897,102.581 96.5897,96.2476 107.5,94.5C 119.122,97.0688 122.955,104.069 119,115.5C 116.758,118.995 113.924,121.662 110.5,123.5 Z"/></g>
<g><path style="opacity:1" fill="#f6f8f9" d="M 471.5,101.5 C 472.167,101.5 472.833,101.5 473.5,101.5C 473.5,108.833 473.5,116.167 473.5,123.5C 465.167,123.5 456.833,123.5 448.5,123.5C 448.328,122.508 448.662,121.842 449.5,121.5C 460.359,118.638 467.693,111.971 471.5,101.5 Z"/></g>
<g><path style="opacity:1" fill="#eff5f8" d="M -0.5,114.5 C 1.49034,117.64 4.32367,119.973 8,121.5C 8.46434,122.094 8.63101,122.761 8.5,123.5C 5.5,123.5 2.5,123.5 -0.5,123.5C -0.5,120.5 -0.5,117.5 -0.5,114.5 Z"/></g>
</svg>
