<?xml version="1.0" encoding="UTF-8"?>
<!DOCTYPE svg PUBLIC "-//W3C//DTD SVG 1.1//EN" "http://www.w3.org/Graphics/SVG/1.1/DTD/svg11.dtd">
<svg xmlns="http://www.w3.org/2000/svg" version="1.1" width="512px" height="512px" style="shape-rendering:geometricPrecision; text-rendering:geometricPrecision; image-rendering:optimizeQuality; fill-rule:evenodd; clip-rule:evenodd" xmlns:xlink="http://www.w3.org/1999/xlink">
<g><path style="opacity:0.994" fill="#659ad2" d="M 245.5,-0.5 C 252.167,-0.5 258.833,-0.5 265.5,-0.5C 269.176,0.677626 272.843,2.17763 276.5,4C 338.67,40.2526 401.003,76.2526 463.5,112C 469.449,116.11 474.116,121.277 477.5,127.5C 447.302,145.098 416.969,162.431 386.5,179.5C 359.044,134.912 319.044,109.745 266.5,104C 196.804,102.75 146.637,133.25 116,195.5C 97.1108,242.231 99.9441,287.564 124.5,331.5C 94.1667,348.833 63.8333,366.167 33.5,383.5C 30.8094,379.278 28.9761,374.612 28,369.5C 27.3333,293.5 27.3333,217.5 28,141.5C 30.6245,129.079 37.1245,119.245 47.5,112C 109.997,76.2526 172.33,40.2526 234.5,4C 238.157,2.17763 241.824,0.677626 245.5,-0.5 Z"/></g>
<g><path style="opacity:1" fill="#fefefe" d="M 386.5,179.5 C 364.834,192.669 342.834,205.335 320.5,217.5C 307.314,195.206 287.648,182.706 261.5,180C 223.169,179.409 197.002,196.909 183,232.5C 176.897,254.006 179.397,274.339 190.5,293.5C 204.67,317.101 225.67,329.767 253.5,331.5C 276.502,331.226 296.002,322.892 312,306.5C 315.352,302.451 318.185,298.118 320.5,293.5C 342.834,305.665 364.834,318.331 386.5,331.5C 363.506,369.624 330.173,393.791 286.5,404C 224.347,414.399 173.514,395.233 134,346.5C 130.323,341.81 127.156,336.81 124.5,331.5C 99.9441,287.564 97.1108,242.231 116,195.5C 146.637,133.25 196.804,102.75 266.5,104C 319.044,109.745 359.044,134.912 386.5,179.5 Z"/></g>
<g><path style="opacity:0.996" fill="#01599c" d="M 477.5,127.5 C 480.191,131.722 482.024,136.388 483,141.5C 483.667,217.5 483.667,293.5 483,369.5C 482.024,374.612 480.191,379.278 477.5,383.5C 447.302,365.902 416.969,348.569 386.5,331.5C 364.834,318.331 342.834,305.665 320.5,293.5C 300.003,281.197 279.336,269.03 258.5,257C 257.207,256.51 255.873,256.343 254.5,256.5C 276.5,243.5 298.5,230.5 320.5,217.5C 342.834,205.335 364.834,192.669 386.5,179.5C 416.969,162.431 447.302,145.098 477.5,127.5 Z"/></g>
<g><path style="opacity:1" fill="#659ad2" d="M 320.5,217.5 C 298.5,230.5 276.5,243.5 254.5,256.5C 232.832,268.332 211.498,280.665 190.5,293.5C 179.397,274.339 176.897,254.006 183,232.5C 197.002,196.909 223.169,179.409 261.5,180C 287.648,182.706 307.314,195.206 320.5,217.5 Z"/></g>
<g><path style="opacity:1" fill="#fdfefe" d="M 390.5,246.5 C 395.64,247.488 400.974,247.821 406.5,247.5C 406.5,252.833 406.5,258.167 406.5,263.5C 400.974,263.179 395.64,263.512 390.5,264.5C 390.5,269.833 390.5,275.167 390.5,280.5C 384.833,280.5 379.167,280.5 373.5,280.5C 373.5,274.833 373.5,269.167 373.5,263.5C 367.833,263.5 362.167,263.5 356.5,263.5C 356.5,258.167 356.5,252.833 356.5,247.5C 362.167,247.5 367.833,247.5 373.5,247.5C 373.5,241.833 373.5,236.167 373.5,230.5C 379.167,230.5 384.833,230.5 390.5,230.5C 390.5,235.833 390.5,241.167 390.5,246.5 Z"/></g>
<g><path style="opacity:1" fill="#fdfefe" d="M 436.5,264.5 C 431.36,263.512 426.026,263.179 420.5,263.5C 420.5,258.167 420.5,252.833 420.5,247.5C 426.026,247.821 431.36,247.488 436.5,246.5C 436.5,241.167 436.5,235.833 436.5,230.5C 442.167,230.5 447.833,230.5 453.5,230.5C 453.5,236.167 453.5,241.833 453.5,247.5C 459.167,247.5 464.833,247.5 470.5,247.5C 470.5,252.833 470.5,258.167 470.5,263.5C 464.833,263.5 459.167,263.5 453.5,263.5C 453.5,269.167 453.5,274.833 453.5,280.5C 447.833,280.5 442.167,280.5 436.5,280.5C 436.5,275.167 436.5,269.833 436.5,264.5 Z"/></g>
<g><path style="opacity:1" fill="#8ab2d1" d="M 390.5,246.5 C 396.167,246.5 401.833,246.5 407.5,246.5C 407.5,252.5 407.5,258.5 407.5,264.5C 401.833,264.5 396.167,264.5 390.5,264.5C 395.64,263.512 400.974,263.179 406.5,263.5C 406.5,258.167 406.5,252.833 406.5,247.5C 400.974,247.821 395.64,247.488 390.5,246.5 Z"/></g>
<g><path style="opacity:1" fill="#90b5d3" d="M 436.5,246.5 C 431.36,247.488 426.026,247.821 420.5,247.5C 420.5,252.833 420.5,258.167 420.5,263.5C 426.026,263.179 431.36,263.512 436.5,264.5C 430.833,264.5 425.167,264.5 419.5,264.5C 419.5,258.5 419.5,252.5 419.5,246.5C 425.167,246.5 430.833,246.5 436.5,246.5 Z"/></g>
<g><path style="opacity:1" fill="#014482" d="M 254.5,256.5 C 255.873,256.343 257.207,256.51 258.5,257C 279.336,269.03 300.003,281.197 320.5,293.5C 318.185,298.118 315.352,302.451 312,306.5C 296.002,322.892 276.502,331.226 253.5,331.5C 225.67,329.767 204.67,317.101 190.5,293.5C 211.498,280.665 232.832,268.332 254.5,256.5 Z"/></g>
<g><path style="opacity:0.996" fill="#004482" d="M 124.5,331.5 C 127.156,336.81 130.323,341.81 134,346.5C 173.514,395.233 224.347,414.399 286.5,404C 330.173,393.791 363.506,369.624 386.5,331.5C 416.969,348.569 447.302,365.902 477.5,383.5C 474.116,389.723 469.449,394.89 463.5,399C 401.003,434.747 338.67,470.747 276.5,507C 272.843,508.822 269.176,510.322 265.5,511.5C 258.833,511.5 252.167,511.5 245.5,511.5C 241.824,510.322 238.157,508.822 234.5,507C 172.33,470.747 109.997,434.747 47.5,399C 41.5733,394.91 36.9066,389.743 33.5,383.5C 63.8333,366.167 94.1667,348.833 124.5,331.5 Z"/></g>
</svg>
